HIERARCHY
ROOT Hips
{
 OFFSET 0.000000 0.000000 0.000000
 CHANNELS 6 Xposition Yposition Zposition Yrotation Xrotation Zrotation
 JOINT Chest
 {
  OFFSET 0.000000 9.588913 -0.003946
  CHANNELS 3 Yrotation Xrotation Zrotation
  JOINT Chest2
  {
   OFFSET 0.000000 9.541882 0.008053
   CHANNELS 3 Yrotation Xrotation Zrotation
   JOINT Chest3
   {
    OFFSET 0.000000 9.501360 0.000000
    CHANNELS 3 Yrotation Xrotation Zrotation
    JOINT Chest4
    {
     OFFSET 0.000000 9.491660 0.000000
     CHANNELS 3 Yrotation Xrotation Zrotation
     JOINT Neck
     {
      OFFSET 0.000000 14.331917 0.000000
      CHANNELS 3 Yrotation Xrotation Zrotation
      JOINT Head
      {
       OFFSET 0.000000 8.884799 0.017034
       CHANNELS 3 Yrotation Xrotation Zrotation
       End Site
       {
        OFFSET 0.000000 16.896195 0.008993
       }
      }
     }
     JOINT RightCollar
     {
      OFFSET -2.923010 9.499495 0.000000
      CHANNELS 3 Yrotation Xrotation Zrotation
      JOINT RightShoulder
      {
       OFFSET -13.795216 0.000000 0.000000
       CHANNELS 3 Yrotation Xrotation Zrotation
       JOINT RightElbow
       {
        OFFSET -30.272209 0.000000 0.000000
        CHANNELS 3 Yrotation Xrotation Zrotation
        JOINT RightWrist
        {
         OFFSET -24.478199 0.000000 0.000000
         CHANNELS 3 Yrotation Xrotation Zrotation
         End Site
         {
          OFFSET -18.090752 0.000000 0.000000
         }
        }
       }
      }
     }
     JOINT LeftCollar
     {
      OFFSET 2.923010 9.499495 0.000000
      CHANNELS 3 Yrotation Xrotation Zrotation
      JOINT LeftShoulder
      {
       OFFSET 13.795216 0.000000 0.000000
       CHANNELS 3 Yrotation Xrotation Zrotation
       JOINT LeftElbow
       {
        OFFSET 30.272209 0.000000 0.000000
        CHANNELS 3 Yrotation Xrotation Zrotation
        JOINT LeftWrist
        {
         OFFSET 24.478199 0.000000 0.000000
         CHANNELS 3 Yrotation Xrotation Zrotation
         End Site
         {
          OFFSET 18.090752 0.000000 0.000000
         }
        }
       }
      }
     }
    }
   }
  }
 }
 JOINT RightHip
 {
  OFFSET -7.826875 0.019532 0.001973
  CHANNELS 3 Yrotation Xrotation Zrotation
  JOINT RightKnee
  {
   OFFSET 0.000000 -40.546152 -0.001885
   CHANNELS 3 Yrotation Xrotation Zrotation
   JOINT RightAnkle
   {
    OFFSET 0.000000 -39.417092 -0.003189
    CHANNELS 3 Yrotation Xrotation Zrotation
    JOINT RightToe
    {
     OFFSET 0.000000 -7.579396 17.243563
     CHANNELS 3 Yrotation Xrotation Zrotation
     End Site
     {
      OFFSET 0.000000 -1.500329 6.694466
     }
    }
   }
  }
 }
 JOINT LeftHip
 {
  OFFSET 7.826875 0.019532 0.001973
  CHANNELS 3 Yrotation Xrotation Zrotation
  JOINT LeftKnee
  {
   OFFSET 0.000000 -40.546152 -0.001885
   CHANNELS 3 Yrotation Xrotation Zrotation
   JOINT LeftAnkle
   {
    OFFSET 0.000000 -39.417092 -0.003189
    CHANNELS 3 Yrotation Xrotation Zrotation
    JOINT LeftToe
    {
     OFFSET 0.000000 -7.579396 17.243563
     CHANNELS 3 Yrotation Xrotation Zrotation
     End Site
     {
      OFFSET 0.000000 -1.500329 6.694466
     }
    }
   }
  }
 }
}
MOTION
Frames: 11
Frame Time: 0.008333
12.439267 73.925140 -0.737590 66.834631 -2.394247 -5.892541 0.438102 17.787616 0.224069 0.230372 10.197224 0.197246 0.294753 12.746390 0.254110 0.230379 10.197220 0.197235 -2.188427 15.298314 1.550215 -2.650042 -9.639296 2.124801 2.822905 -3.149758 -12.234293 -16.673396 -6.579979 39.080596 64.560639 -15.222499 19.256962 6.903668 -5.587266 5.505308 -13.054971 -5.229529 8.966172 3.023325 -40.377564 -35.710194 -48.556750 -1.688742 -12.408559 -5.218982 -0.663884 3.875566 -1.737052 -31.921264 -10.356907 8.729744 21.593054 2.994921 10.264881 9.157437 24.930433 0.087025 -1.403798 -0.784055 -7.149058 -36.527291 -4.026459 -30.206701 72.964745 -17.211952 -1.511469 -35.736387 -10.018521 -0.094508 0.102565 -0.093731
12.545013 73.910625 -0.579568 67.143289 -2.647094 -5.874112 0.352553 17.686058 0.195802 0.184279 10.143376 0.175275 0.236243 12.679118 0.225184 0.184289 10.143371 0.175263 -2.184684 15.445188 1.591226 -2.656592 -9.483437 2.167928 2.744536 -3.213252 -12.220459 -16.951790 -6.363976 39.357766 64.820157 -15.174261 19.206065 6.868686 -5.570494 5.546691 -12.989317 -5.264130 8.879365 3.183657 -40.177202 -35.815563 -48.371442 -1.596835 -12.396465 -5.133874 -0.609612 3.796557 -1.636398 -31.224883 -10.484031 8.814505 21.364675 2.976120 10.266001 9.166462 24.992800 0.078289 -1.389493 -0.608734 -7.394379 -36.160720 -4.028540 -30.255424 73.010434 -17.260915 -1.559400 -35.878094 -9.993910 -0.051394 0.091377 -0.099715
12.651789 73.891863 -0.420746 67.465606 -2.882372 -5.848855 0.271401 17.564175 0.174032 0.140344 10.083787 0.152972 0.180441 12.604664 0.195916 0.140358 10.083781 0.152960 -2.199981 15.616763 1.633793 -2.683969 -9.300439 2.217424 2.663399 -3.267360 -12.197929 -17.266229 -6.164325 39.615635 65.090905 -15.118258 19.188790 6.806826 -5.538603 5.609512 -12.929635 -5.293213 8.793570 3.343204 -40.033669 -35.939445 -48.161091 -1.516318 -12.430450 -5.059710 -0.566053 3.735004 -1.517477 -30.531666 -10.627784 8.928565 21.125682 2.967719 10.267208 9.161009 24.896716 0.065425 -1.383107 -0.333818 -7.679266 -35.819773 -4.055751 -30.293344 73.076734 -17.274749 -1.584223 -36.007414 -10.001780 0.003894 0.065262 -0.097340
12.758168 73.868906 -0.261083 67.793836 -3.100183 -5.813732 0.196789 17.425019 0.158288 0.099677 10.018020 0.131160 0.128763 12.522480 0.167371 0.099696 10.018013 0.131148 -2.234335 15.810492 1.676896 -2.731979 -9.092784 2.272218 2.571130 -3.312344 -12.175660 -17.604890 -5.983880 39.855810 65.365250 -15.061958 19.204528 6.724348 -5.497015 5.689068 -12.877909 -5.320891 8.704439 3.495399 -39.938169 -36.072063 -47.928459 -1.445034 -12.503977 -5.012618 -0.538602 3.705783 -1.397039 -29.839304 -10.783522 9.065072 20.861917 2.969216 10.278750 9.149519 24.659039 0.048379 -1.377766 0.001222 -7.993089 -35.502064 -4.113277 -30.379724 73.154926 -17.310972 -1.564158 -36.130227 -10.025248 0.063866 0.031600 -0.100306
12.864162 73.841617 -0.101064 68.121848 -3.307434 -5.761329 0.127223 17.276985 0.143676 0.062842 9.947148 0.109362 0.081906 12.433908 0.138968 0.062864 9.947141 0.109352 -2.284420 16.018097 1.717701 -2.796398 -8.869201 2.328489 2.466578 -3.356362 -12.157198 -17.953330 -5.817615 40.084155 65.637124 -15.004389 19.245995 6.634710 -5.456134 5.771244 -12.830318 -5.355148 8.611642 3.623364 -39.873266 -36.204748 -47.678912 -1.384483 -12.596796 -5.002745 -0.525359 3.713653 -1.291913 -29.142173 -10.951822 9.209099 20.569378 2.976318 10.309149 9.131639 24.321110 0.030201 -1.362401 0.344065 -8.323541 -35.198253 -4.212122 -30.522404 73.240330 -17.380720 -1.490626 -36.253594 -10.049214 0.119606 -0.002876 -0.118502
12.969683 73.809889 0.059409 68.444095 -3.511394 -5.689676 0.064216 17.128921 0.129874 0.029255 9.871486 0.086152 0.039098 12.339344 0.108901 0.029281 9.871479 0.086144 -2.345155 16.232314 1.753257 -2.871107 -8.637498 2.381857 2.358860 -3.405806 -12.142139 -18.302433 -5.652327 40.305752 65.899481 -14.952710 19.300681 6.553283 -5.421589 5.844242 -12.780765 -5.398635 8.516905 3.718149 -39.827162 -36.330491 -47.423464 -1.331254 -12.697198 -5.023957 -0.520749 3.758743 -1.203384 -28.435127 -11.134569 9.331906 20.251648 2.983226 10.360389 9.105737 23.937014 0.014117 -1.328945 0.643389 -8.663844 -34.898630 -4.352304 -30.667510 73.335625 -17.435589 -1.376527 -36.387272 -10.081825 0.166683 -0.033383 -0.143819
13.073941 73.773788 0.221262 68.751072 -3.716718 -5.604560 0.015421 16.985672 0.119671 -0.000342 9.791138 0.061558 0.001272 12.238917 0.077223 -0.000313 9.791132 0.061550 -2.412091 16.449900 1.781409 -2.950849 -8.401254 2.428943 2.252284 -3.462641 -12.131653 -18.648014 -5.469422 40.528665 66.158859 -14.917790 19.350750 6.485826 -5.398562 5.906833 -12.731895 -5.453740 8.423046 3.787517 -39.793125 -36.446065 -47.177512 -1.270730 -12.802562 -5.059650 -0.524591 3.830106 -1.137176 -27.717581 -11.317838 9.416360 19.911104 2.980126 10.428922 9.074516 23.561077 0.001775 -1.274152 0.861468 -8.998889 -34.597319 -4.521965 -30.759876 73.445616 -17.427438 -1.243873 -36.538011 -10.135546 0.201689 -0.057927 -0.162699
13.175742 73.733527 0.385195 69.032927 -3.923914 -5.512982 -0.013405 16.846487 0.113044 -0.024609 9.706803 0.036829 -0.029857 12.133502 0.045538 -0.024579 9.706798 0.036822 -2.480152 16.669540 1.802401 -3.030261 -8.162004 2.468769 2.148500 -3.527989 -12.126503 -18.983228 -5.259471 40.753765 66.423956 -14.905092 19.382721 6.430169 -5.391812 5.971566 -12.685717 -5.526179 8.332783 3.843152 -39.760250 -36.553326 -46.958669 -1.187366 -12.905779 -5.095017 -0.532585 3.905112 -1.104496 -26.997378 -11.483032 9.472611 19.552298 2.962137 10.502524 9.039558 23.236637 -0.005705 -1.199351 0.980147 -9.316379 -34.297098 -4.704116 -30.788398 73.573651 -17.356204 -1.108483 -36.701784 -10.209752 0.224355 -0.080732 -0.170574
13.274138 73.689390 0.550147 69.289167 -4.128385 -5.413871 -0.027751 16.706838 0.103334 -0.043171 9.618838 0.012240 -0.053808 12.023546 0.014197 -0.043140 9.618836 0.012234 -2.544045 16.891344 1.819755 -3.104519 -7.919689 2.503810 2.046058 -3.600784 -12.126895 -19.297616 -5.026242 40.975972 66.693672 -14.922277 19.393034 6.384651 -5.391469 6.057587 -12.636668 -5.617384 8.248389 3.886006 -39.719801 -36.651454 -46.775839 -1.077588 -12.999555 -5.123797 -0.532465 3.965487 -1.103843 -26.288325 -11.632285 9.512517 19.189689 2.933841 10.562729 8.991145 22.986139 -0.006656 -1.105306 1.000874 -9.619229 -34.008842 -4.889875 -30.780856 73.716365 -17.259959 -0.974311 -36.865787 -10.300151 0.239319 -0.107479 -0.167379
13.368599 73.641849 0.713967 69.527362 -4.322935 -5.301683 -0.038898 16.559346 0.079304 -0.055344 9.527525 -0.012894 -0.069744 11.909403 -0.017643 -0.055312 9.527525 -0.012900 -2.599386 17.117814 1.840939 -3.170722 -7.671512 2.540995 1.939823 -3.676706 -12.127134 -19.588144 -4.778962 41.190005 66.970622 -14.974234 19.387041 6.340881 -5.384412 6.169351 -12.581867 -5.721630 8.178181 3.912999 -39.670033 -36.732873 -46.630300 -0.950621 -13.091073 -5.149590 -0.521490 4.010739 -1.134876 -25.604800 -11.776200 9.538531 18.839632 2.899691 10.599554 8.915671 22.815797 -0.001844 -0.992569 0.937040 -9.914752 -33.745941 -5.083130 -30.781282 73.867633 -17.184394 -0.832535 -37.015943 -10.405098 0.248995 -0.141804 -0.155266
13.459373 73.591728 0.874723 69.750207 -4.503604 -5.172196 -0.052097 16.399779 0.033350 -0.059942 9.433283 -0.038887 -0.076186 11.791597 -0.050351 -0.059910 9.433286 -0.038894 -2.645561 17.350473 1.871857 -3.229616 -7.415621 2.586498 1.833989 -3.751873 -12.118594 -19.868121 -4.531460 41.385146 67.259115 -15.054914 19.375128 6.291420 -5.365379 6.299258 -12.522228 -5.828122 8.131611 3.926475 -39.612966 -36.789423 -46.521732 -0.824386 -13.189814 -5.176201 -0.510079 4.044869 -1.203779 -24.954933 -11.919377 9.557806 18.506501 2.860706 10.616282 8.808575 22.728494 0.004482 -0.865789 0.805120 -10.192440 -33.513451 -5.294534 -30.833089 74.020861 -17.166382 -0.671996 -37.147528 -10.515962 0.249367 -0.181540 -0.141559
